<svg width="2211" height="1163" viewBox="0 0 2211 1163" fill="none" xmlns="http://www.w3.org/2000/svg">
<rect width="2211" height="1163" fill="url(#paint0_linear_1_31)"/>
<path d="M1130.17 525.7H1127.5C1121.43 525.7 1116.18 529.91 1114.91 535.807L1107.37 570.743C1106.1 576.641 1100.85 580.85 1094.78 580.85H1093.91C1085.73 580.85 1079.63 573.384 1081.31 565.442L1086.27 541.982C1088.04 533.593 1081.6 525.7 1072.96 525.7C1063.41 525.7 1054.39 521.352 1048.49 513.896L1048.43 513.816C1042.54 506.38 1040.27 496.72 1042.26 487.467L1049.55 453.385C1050.81 447.478 1056.07 443.258 1062.15 443.258H1063.02C1071.2 443.258 1077.3 450.724 1075.62 458.666L1070.45 483.109C1069.68 486.772 1070.56 490.585 1072.86 493.543C1075.3 496.681 1079.07 498.517 1083.06 498.517H1133.3C1138.7 498.517 1143.92 496.631 1148.06 493.176C1151.46 490.347 1153.8 486.465 1154.72 482.156L1160.88 453.375C1162.14 447.468 1167.4 443.248 1173.48 443.248H1174.43C1182.62 443.248 1188.73 450.734 1187.03 458.686L1181.6 484.062C1179.1 495.718 1172.71 506.202 1163.46 513.796C1154.1 521.481 1142.34 525.69 1130.2 525.69L1130.17 525.7Z" fill="url(#paint1_linear_1_31)"/>
<path d="M1510.22 459.649C1512.01 451.201 1505.52 443.258 1496.83 443.258H1402.22L1396.69 470.431H1496.84C1503.31 470.431 1508.9 465.934 1510.23 459.649H1510.22Z" fill="url(#paint2_linear_1_31)"/>
<path d="M1476.88 514.918C1478.67 506.47 1472.18 498.527 1463.49 498.527H1390.62L1384.85 525.7H1463.49C1469.96 525.7 1475.55 521.203 1476.88 514.918Z" fill="url(#paint3_linear_1_31)"/>
<path d="M1379.87 553.677L1385.98 525.7L1391.99 497.415H1392.04L1397.82 470.431L1403.61 443.596C1403.65 443.417 1403.51 443.258 1403.34 443.258H1398.02C1385.33 443.258 1374.37 452.074 1371.73 464.395L1350.31 564.449C1348.5 572.898 1354.99 580.86 1363.7 580.86H1474.29C1480.76 580.86 1486.35 576.363 1487.68 570.078C1489.47 561.63 1482.98 553.687 1474.29 553.687H1379.89L1379.87 553.677Z" fill="url(#paint4_linear_1_31)"/>
<path d="M905.578 498.527L913.898 459.242C915.648 451.002 909.308 443.258 900.838 443.258C894.538 443.258 889.088 447.636 887.778 453.762L863.998 564.846C862.228 573.096 868.568 580.86 877.058 580.86C883.348 580.86 888.788 576.492 890.108 570.386L899.768 525.7L905.588 498.527H905.578Z" fill="url(#paint5_linear_1_31)"/>
<path d="M905.578 498.468L899.768 525.641L984.368 525.7L990.168 498.527L905.578 498.468Z" fill="url(#paint6_linear_1_31)"/>
<path d="M1013.44 443.258C1007.15 443.258 1001.71 447.626 1000.39 453.732L990.798 498.14L984.248 528.837H984.218L976.578 564.866C974.828 573.106 981.158 580.85 989.638 580.85H989.648C995.948 580.85 1001.4 576.472 1002.71 570.356L1026.49 459.262C1028.26 451.022 1021.92 443.258 1013.43 443.258H1013.44Z" fill="url(#paint7_linear_1_31)"/>
<path d="M990.728 498.537L990.698 498.527H990.168L984.368 525.7H984.878L984.218 528.837L984.248 528.847L990.728 498.537Z" fill="url(#paint8_linear_1_31)"/>
<path d="M723.818 464.305L702.298 564.846C700.528 573.096 706.868 580.86 715.358 580.86C721.648 580.86 727.088 576.492 728.408 570.386L738.068 525.7L738.048 525.819L743.888 498.527L749.898 470.431L756.118 443.258H749.998C737.358 443.258 726.448 452.034 723.818 464.305Z" fill="url(#paint9_linear_1_31)"/>
<path d="M813.528 443L755.738 443.258L749.788 470.431H816.228C825.268 470.431 831.998 478.711 830.098 487.487C828.698 493.94 822.978 498.567 816.328 498.607L743.638 499.133L737.908 526.306L807.738 525.819C819.208 525.74 831.958 523.288 840.798 516.03C847.768 510.302 855.088 502.836 857.258 484.638C856.698 463.898 849.528 456.343 849.528 456.343C849.528 456.343 842.058 443.993 813.528 443Z" fill="url(#paint10_linear_1_31)"/>
<path d="M1208.81 464.425L1187.33 564.777C1185.56 573.057 1191.92 580.86 1200.45 580.86C1206.77 580.86 1212.23 576.482 1213.56 570.346L1223.21 525.71H1223.23L1228.94 498.537L1234.9 470.57L1240.45 443.347C1240.45 443.347 1240.43 443.268 1240.38 443.268H1235.15C1222.44 443.268 1211.46 452.094 1208.82 464.434L1208.81 464.425Z" fill="url(#paint11_linear_1_31)"/>
<path d="M1338.82 456.611L1336.55 453.742C1331.31 447.12 1323.3 443.248 1314.82 443.248H1240.46L1234.91 470.421H1313.02C1316.07 470.421 1318.37 473.181 1317.79 476.159C1317.58 477.261 1316.98 478.254 1316.11 478.959L1299.67 492.422C1294.86 496.353 1288.83 498.507 1282.6 498.507H1228.92L1223.2 525.68H1274.85C1282.16 525.68 1289.08 529.006 1293.61 534.705L1294.89 536.313C1299.86 542.558 1301.75 550.669 1300.07 558.443L1298.59 565.263C1296.85 573.275 1303 580.83 1311.25 580.83C1317.8 580.83 1323.45 576.283 1324.81 569.919L1329.92 546.013C1331.66 537.862 1329.68 529.364 1324.5 522.801L1319.17 516.04C1317.41 513.806 1317.76 510.6 1319.96 508.793L1334.55 496.839C1339.22 493.017 1342.43 487.726 1343.67 481.848L1344.19 479.376C1345.87 471.364 1343.91 463.025 1338.81 456.591L1338.82 456.611Z" fill="url(#paint12_linear_1_31)"/>
<path d="M809.96 688.72C804.52 688.72 800.312 687.248 797.336 684.304C794.36 681.36 792.872 677.152 792.872 671.68C792.872 666.208 794.328 662 797.24 659.056C800.184 656.112 804.376 654.64 809.816 654.64C811.992 654.64 814.008 654.864 815.864 655.312C817.72 655.76 819.288 656.4 820.568 657.232C820.856 657.424 821 657.632 821 657.856C821 658.048 820.92 658.272 820.76 658.528L819.416 660.832C819.224 661.12 819.048 661.264 818.888 661.264C818.76 661.264 818.536 661.184 818.216 661.024C816.2 659.808 813.624 659.2 810.488 659.2C806.872 659.2 804.04 660.24 801.992 662.32C799.944 664.4 798.92 667.52 798.92 671.68C798.92 675.904 799.976 679.056 802.088 681.136C804.2 683.184 807.048 684.208 810.632 684.208C813.96 684.208 816.696 683.584 818.84 682.336C819.16 682.176 819.368 682.096 819.464 682.096C819.656 682.096 819.848 682.24 820.04 682.528L821.528 685.024C821.624 685.216 821.672 685.376 821.672 685.504C821.672 685.696 821.496 685.904 821.144 686.128C818.68 687.856 814.952 688.72 809.96 688.72ZM836.208 688.72C832.048 688.72 828.832 687.632 826.56 685.456C824.32 683.248 823.2 680.256 823.2 676.48C823.2 672.704 824.32 669.728 826.56 667.552C828.832 665.344 832.048 664.24 836.208 664.24C840.368 664.24 843.584 665.344 845.856 667.552C848.128 669.728 849.264 672.704 849.264 676.48C849.264 680.256 848.128 683.248 845.856 685.456C843.584 687.632 840.368 688.72 836.208 688.72ZM836.208 684.208C838.48 684.208 840.208 683.552 841.392 682.24C842.576 680.928 843.168 679.008 843.168 676.48C843.168 673.984 842.576 672.096 841.392 670.816C840.208 669.504 838.48 668.848 836.208 668.848C833.968 668.848 832.24 669.504 831.024 670.816C829.84 672.096 829.248 673.984 829.248 676.48C829.248 678.976 829.84 680.896 831.024 682.24C832.24 683.552 833.968 684.208 836.208 684.208ZM865.942 688.72C856.854 688.72 852.31 684.624 852.31 676.432C852.31 674.032 852.774 671.92 853.702 670.096C854.63 668.24 855.958 666.8 857.686 665.776C859.446 664.752 861.51 664.24 863.878 664.24C867.238 664.24 869.67 664.992 871.174 666.496V657.136C871.174 656.528 871.318 656.08 871.606 655.792C871.894 655.504 872.358 655.36 872.998 655.36H875.398C876.038 655.36 876.502 655.504 876.79 655.792C877.078 656.08 877.222 656.528 877.222 657.136V685.6C876.006 686.496 874.374 687.248 872.326 687.856C870.278 688.432 868.15 688.72 865.942 688.72ZM866.086 684.352C868.23 684.352 869.926 683.968 871.174 683.2V673.408C871.174 671.84 870.63 670.656 869.542 669.856C868.454 669.056 867.046 668.656 865.318 668.656C862.982 668.656 861.238 669.36 860.086 670.768C858.934 672.176 858.358 674.112 858.358 676.576C858.358 679.328 858.998 681.312 860.278 682.528C861.558 683.744 863.494 684.352 866.086 684.352ZM895.327 688.72C892.831 688.72 890.575 688.304 888.559 687.472C886.543 686.608 884.927 685.296 883.711 683.536C882.527 681.744 881.935 679.52 881.935 676.864C881.935 672.736 883.039 669.6 885.247 667.456C887.455 665.312 890.591 664.24 894.655 664.24C898.687 664.24 901.727 665.28 903.775 667.36C905.855 669.44 906.895 672.448 906.895 676.384C906.895 677.504 906.383 678.064 905.359 678.064H887.743C887.743 680.176 888.479 681.808 889.951 682.96C891.423 684.08 893.471 684.64 896.095 684.64C898.623 684.64 900.895 684.064 902.911 682.912C903.135 682.784 903.311 682.72 903.439 682.72C903.663 682.72 903.839 682.864 903.967 683.152L905.119 685.216C905.215 685.408 905.263 685.584 905.263 685.744C905.263 685.968 905.119 686.176 904.831 686.368C903.519 687.168 902.095 687.76 900.559 688.144C899.055 688.528 897.311 688.72 895.327 688.72ZM901.327 674.512C901.327 672.528 900.767 670.976 899.647 669.856C898.559 668.736 896.911 668.176 894.703 668.176C892.463 668.176 890.735 668.752 889.519 669.904C888.335 671.056 887.743 672.592 887.743 674.512H901.327ZM912.638 688C912.062 688 911.582 687.792 911.198 687.376C910.814 686.96 910.622 686.464 910.622 685.888V685.024C910.622 684.416 910.814 683.904 911.198 683.488C911.582 683.072 912.062 682.864 912.638 682.864H913.55C914.126 682.864 914.606 683.072 914.99 683.488C915.374 683.904 915.566 684.416 915.566 685.024V685.888C915.566 686.464 915.374 686.96 914.99 687.376C914.606 687.792 914.126 688 913.55 688H912.638ZM938.813 688C938.269 688 937.997 687.76 937.997 687.28C937.997 687.088 938.045 686.88 938.141 686.656L950.813 656.608C951.005 656.128 951.213 655.808 951.437 655.648C951.661 655.456 951.981 655.36 952.397 655.36H955.037C955.485 655.36 955.805 655.456 955.997 655.648C956.221 655.808 956.429 656.128 956.621 656.608L969.293 686.656C969.389 686.88 969.437 687.088 969.437 687.28C969.437 687.76 969.165 688 968.621 688H964.445C964.029 688 963.725 687.952 963.533 687.856C963.373 687.728 963.213 687.488 963.053 687.136L960.317 680.416H947.069L944.381 687.136C944.221 687.488 944.045 687.728 943.853 687.856C943.693 687.952 943.405 688 942.989 688H938.813ZM958.781 675.952L953.693 663.376L948.605 675.952H958.781ZM980.969 688.72C978.345 688.72 976.233 688 974.633 686.56C973.033 685.088 972.233 682.912 972.233 680.032V666.736C972.233 666.128 972.361 665.68 972.617 665.392C972.905 665.104 973.369 664.96 974.009 664.96H976.553C977.193 664.96 977.657 665.104 977.945 665.392C978.233 665.68 978.377 666.128 978.377 666.736V679.888C978.377 681.424 978.777 682.56 979.577 683.296C980.377 684 981.561 684.352 983.129 684.352C984.793 684.352 986.185 683.888 987.305 682.96C988.425 682.032 988.985 680.832 988.985 679.36V666.736C988.985 666.128 989.129 665.68 989.417 665.392C989.705 665.104 990.169 664.96 990.809 664.96H993.305C993.945 664.96 994.409 665.104 994.697 665.392C994.985 665.68 995.129 666.128 995.129 666.736V686.704C995.129 687.216 995.049 687.568 994.889 687.76C994.729 687.92 994.393 688 993.881 688H991.193C990.841 688 990.585 687.936 990.425 687.808C990.265 687.648 990.169 687.408 990.137 687.088L989.945 685.072C987.769 687.504 984.777 688.72 980.969 688.72ZM1011.39 688.72C1008.67 688.72 1006.63 687.968 1005.25 686.464C1003.87 684.96 1003.19 682.88 1003.19 680.224V669.472H1000.45C999.809 669.472 999.377 669.36 999.153 669.136C998.961 668.912 998.865 668.496 998.865 667.888V666.592C998.865 665.984 998.961 665.568 999.153 665.344C999.377 665.088 999.809 664.96 1000.45 664.96H1003.19V662.32C1003.19 661.648 1003.3 661.024 1003.52 660.448C1003.78 659.84 1004.16 659.088 1004.67 658.192C1004.87 657.808 1005.04 657.568 1005.2 657.472C1005.39 657.344 1005.71 657.28 1006.16 657.28H1007.75C1008.32 657.28 1008.72 657.424 1008.95 657.712C1009.2 657.968 1009.33 658.368 1009.33 658.912V664.96H1014.99C1015.63 664.96 1016.05 665.088 1016.24 665.344C1016.47 665.568 1016.58 665.984 1016.58 666.592V667.888C1016.58 668.496 1016.47 668.912 1016.24 669.136C1016.05 669.36 1015.63 669.472 1014.99 669.472H1009.33V680.032C1009.33 681.504 1009.59 682.576 1010.1 683.248C1010.61 683.888 1011.49 684.208 1012.74 684.208C1013.47 684.208 1014.1 684.128 1014.61 683.968C1015.12 683.776 1015.68 683.472 1016.29 683.056C1016.45 682.928 1016.63 682.864 1016.82 682.864C1017.01 682.864 1017.2 683.008 1017.39 683.296L1018.79 685.6C1018.91 685.76 1018.98 685.936 1018.98 686.128C1018.98 686.352 1018.82 686.576 1018.5 686.8C1016.51 688.08 1014.15 688.72 1011.39 688.72ZM1033.08 688.72C1028.92 688.72 1025.71 687.632 1023.44 685.456C1021.2 683.248 1020.08 680.256 1020.08 676.48C1020.08 672.704 1021.2 669.728 1023.44 667.552C1025.71 665.344 1028.92 664.24 1033.08 664.24C1037.24 664.24 1040.46 665.344 1042.73 667.552C1045 669.728 1046.14 672.704 1046.14 676.48C1046.14 680.256 1045 683.248 1042.73 685.456C1040.46 687.632 1037.24 688.72 1033.08 688.72ZM1033.08 684.208C1035.36 684.208 1037.08 683.552 1038.27 682.24C1039.45 680.928 1040.04 679.008 1040.04 676.48C1040.04 673.984 1039.45 672.096 1038.27 670.816C1037.08 669.504 1035.36 668.848 1033.08 668.848C1030.84 668.848 1029.12 669.504 1027.9 670.816C1026.72 672.096 1026.12 673.984 1026.12 676.48C1026.12 678.976 1026.72 680.896 1027.9 682.24C1029.12 683.552 1030.84 684.208 1033.08 684.208ZM1052.67 688C1052.03 688 1051.57 687.856 1051.28 687.568C1050.99 687.28 1050.85 686.848 1050.85 686.272V666.256C1050.85 665.776 1050.93 665.44 1051.09 665.248C1051.25 665.056 1051.58 664.96 1052.1 664.96H1054.64C1054.99 664.96 1055.25 665.04 1055.41 665.2C1055.57 665.328 1055.66 665.568 1055.7 665.92L1055.84 667.936C1056.77 666.752 1057.82 665.84 1059.01 665.2C1060.22 664.56 1061.66 664.24 1063.33 664.24C1064.74 664.24 1065.95 664.56 1066.98 665.2C1068.03 665.808 1068.8 666.72 1069.28 667.936C1071.04 665.472 1073.58 664.24 1076.91 664.24C1079.18 664.24 1080.98 664.928 1082.29 666.304C1083.63 667.68 1084.3 669.728 1084.3 672.448V686.272C1084.3 686.848 1084.16 687.28 1083.87 687.568C1083.62 687.856 1083.15 688 1082.48 688H1080.37C1079.73 688 1079.26 687.856 1078.98 687.568C1078.69 687.28 1078.54 686.848 1078.54 686.272V672.784C1078.54 671.312 1078.22 670.256 1077.58 669.616C1076.98 668.976 1076.05 668.656 1074.8 668.656C1073.49 668.656 1072.42 669.088 1071.58 669.952C1070.78 670.816 1070.38 671.984 1070.38 673.456V686.272C1070.38 686.848 1070.24 687.28 1069.95 687.568C1069.66 687.856 1069.2 688 1068.56 688H1066.59C1065.95 688 1065.49 687.856 1065.2 687.568C1064.91 687.28 1064.77 686.848 1064.77 686.272V672.544C1064.77 671.2 1064.48 670.224 1063.9 669.616C1063.36 668.976 1062.48 668.656 1061.26 668.656C1059.89 668.656 1058.77 669.12 1057.9 670.048C1057.04 670.944 1056.61 672.128 1056.61 673.6V686.272C1056.61 686.848 1056.46 687.28 1056.18 687.568C1055.92 687.856 1055.46 688 1054.78 688H1052.67ZM1098.32 688.72C1095.18 688.72 1092.68 687.776 1090.83 685.888C1088.97 683.968 1088.04 681.28 1088.04 677.824C1088.04 675.136 1088.64 672.768 1089.82 670.72C1091 668.64 1092.68 667.04 1094.86 665.92C1097.07 664.8 1099.63 664.24 1102.54 664.24C1106.6 664.24 1110.04 665.2 1112.86 667.12V686.704C1112.86 687.184 1112.75 687.52 1112.52 687.712C1112.33 687.904 1111.98 688 1111.47 688H1108.83C1108.48 688 1108.2 687.936 1108.01 687.808C1107.85 687.648 1107.74 687.408 1107.68 687.088L1107.29 685.216C1106.3 686.432 1105.07 687.328 1103.6 687.904C1102.16 688.448 1100.4 688.72 1098.32 688.72ZM1100.62 684.352C1102.32 684.352 1103.8 683.856 1105.08 682.864C1106.4 681.872 1107.05 680.56 1107.05 678.928V669.568C1106.38 669.216 1105.69 668.976 1104.99 668.848C1104.32 668.688 1103.48 668.608 1102.49 668.608C1099.96 668.608 1097.93 669.408 1096.4 671.008C1094.86 672.608 1094.09 674.816 1094.09 677.632C1094.09 679.936 1094.62 681.632 1095.68 682.72C1096.76 683.808 1098.41 684.352 1100.62 684.352ZM1127.92 688.72C1125.2 688.72 1123.16 687.968 1121.78 686.464C1120.4 684.96 1119.72 682.88 1119.72 680.224V669.472H1116.98C1116.34 669.472 1115.91 669.36 1115.68 669.136C1115.49 668.912 1115.4 668.496 1115.4 667.888V666.592C1115.4 665.984 1115.49 665.568 1115.68 665.344C1115.91 665.088 1116.34 664.96 1116.98 664.96H1119.72V662.32C1119.72 661.648 1119.83 661.024 1120.05 660.448C1120.31 659.84 1120.69 659.088 1121.2 658.192C1121.4 657.808 1121.57 657.568 1121.73 657.472C1121.92 657.344 1122.24 657.28 1122.69 657.28H1124.28C1124.85 657.28 1125.25 657.424 1125.48 657.712C1125.73 657.968 1125.86 658.368 1125.86 658.912V664.96H1131.52C1132.16 664.96 1132.58 665.088 1132.77 665.344C1133 665.568 1133.11 665.984 1133.11 666.592V667.888C1133.11 668.496 1133 668.912 1132.77 669.136C1132.58 669.36 1132.16 669.472 1131.52 669.472H1125.86V680.032C1125.86 681.504 1126.12 682.576 1126.63 683.248C1127.14 683.888 1128.02 684.208 1129.27 684.208C1130 684.208 1130.63 684.128 1131.14 683.968C1131.65 683.776 1132.21 683.472 1132.82 683.056C1132.98 682.928 1133.16 682.864 1133.35 682.864C1133.54 682.864 1133.73 683.008 1133.92 683.296L1135.32 685.6C1135.44 685.76 1135.51 685.936 1135.51 686.128C1135.51 686.352 1135.35 686.576 1135.03 686.8C1133.04 688.08 1130.68 688.72 1127.92 688.72ZM1151.69 688.72C1149.19 688.72 1146.93 688.304 1144.92 687.472C1142.9 686.608 1141.29 685.296 1140.07 683.536C1138.89 681.744 1138.29 679.52 1138.29 676.864C1138.29 672.736 1139.4 669.6 1141.61 667.456C1143.81 665.312 1146.95 664.24 1151.01 664.24C1155.05 664.24 1158.09 665.28 1160.13 667.36C1162.21 669.44 1163.25 672.448 1163.25 676.384C1163.25 677.504 1162.74 678.064 1161.72 678.064H1144.1C1144.1 680.176 1144.84 681.808 1146.31 682.96C1147.78 684.08 1149.83 684.64 1152.45 684.64C1154.98 684.64 1157.25 684.064 1159.27 682.912C1159.49 682.784 1159.67 682.72 1159.8 682.72C1160.02 682.72 1160.2 682.864 1160.33 683.152L1161.48 685.216C1161.57 685.408 1161.62 685.584 1161.62 685.744C1161.62 685.968 1161.48 686.176 1161.19 686.368C1159.88 687.168 1158.45 687.76 1156.92 688.144C1155.41 688.528 1153.67 688.72 1151.69 688.72ZM1157.69 674.512C1157.69 672.528 1157.13 670.976 1156.01 669.856C1154.92 668.736 1153.27 668.176 1151.06 668.176C1148.82 668.176 1147.09 668.752 1145.88 669.904C1144.69 671.056 1144.1 672.592 1144.1 674.512H1157.69ZM1169 688C1168.42 688 1167.94 687.792 1167.56 687.376C1167.17 686.96 1166.98 686.464 1166.98 685.888V685.024C1166.98 684.416 1167.17 683.904 1167.56 683.488C1167.94 683.072 1168.42 682.864 1169 682.864H1169.91C1170.49 682.864 1170.97 683.072 1171.35 683.488C1171.73 683.904 1171.93 684.416 1171.93 685.024V685.888C1171.93 686.464 1171.73 686.96 1171.35 687.376C1170.97 687.792 1170.49 688 1169.91 688H1169ZM1197.09 688C1196.45 688 1195.99 687.856 1195.7 687.568C1195.44 687.28 1195.32 686.848 1195.32 686.272V657.136C1195.32 656.528 1195.44 656.08 1195.7 655.792C1195.99 655.504 1196.45 655.36 1197.09 655.36H1206.69C1212.1 655.36 1216.23 656.656 1219.08 659.248C1221.96 661.84 1223.4 665.984 1223.4 671.68C1223.4 682.56 1217.83 688 1206.69 688H1197.09ZM1207.08 683.344C1210.47 683.344 1213.01 682.464 1214.71 680.704C1216.44 678.944 1217.3 675.936 1217.3 671.68C1217.3 667.424 1216.44 664.432 1214.71 662.704C1213.01 660.944 1210.47 660.064 1207.08 660.064H1201.46V683.344H1207.08ZM1238.68 688.72C1234.52 688.72 1231.3 687.632 1229.03 685.456C1226.79 683.248 1225.67 680.256 1225.67 676.48C1225.67 672.704 1226.79 669.728 1229.03 667.552C1231.3 665.344 1234.52 664.24 1238.68 664.24C1242.84 664.24 1246.05 665.344 1248.32 667.552C1250.6 669.728 1251.73 672.704 1251.73 676.48C1251.73 680.256 1250.6 683.248 1248.32 685.456C1246.05 687.632 1242.84 688.72 1238.68 688.72ZM1238.68 684.208C1240.95 684.208 1242.68 683.552 1243.86 682.24C1245.04 680.928 1245.64 679.008 1245.64 676.48C1245.64 673.984 1245.04 672.096 1243.86 670.816C1242.68 669.504 1240.95 668.848 1238.68 668.848C1236.44 668.848 1234.71 669.504 1233.49 670.816C1232.31 672.096 1231.72 673.984 1231.72 676.48C1231.72 678.976 1232.31 680.896 1233.49 682.24C1234.71 683.552 1236.44 684.208 1238.68 684.208ZM1258.27 688C1257.63 688 1257.16 687.856 1256.87 687.568C1256.59 687.28 1256.44 686.848 1256.44 686.272V666.256C1256.44 665.776 1256.52 665.44 1256.68 665.248C1256.84 665.056 1257.18 664.96 1257.69 664.96H1260.23C1260.59 664.96 1260.84 665.04 1261 665.2C1261.16 665.328 1261.26 665.568 1261.29 665.92L1261.43 667.936C1262.36 666.752 1263.42 665.84 1264.6 665.2C1265.82 664.56 1267.26 664.24 1268.92 664.24C1270.33 664.24 1271.55 664.56 1272.57 665.2C1273.63 665.808 1274.39 666.72 1274.87 667.936C1276.63 665.472 1279.18 664.24 1282.51 664.24C1284.78 664.24 1286.57 664.928 1287.88 666.304C1289.23 667.68 1289.9 669.728 1289.9 672.448V686.272C1289.9 686.848 1289.75 687.28 1289.47 687.568C1289.21 687.856 1288.75 688 1288.07 688H1285.96C1285.32 688 1284.86 687.856 1284.57 687.568C1284.28 687.28 1284.14 686.848 1284.14 686.272V672.784C1284.14 671.312 1283.82 670.256 1283.18 669.616C1282.57 668.976 1281.64 668.656 1280.39 668.656C1279.08 668.656 1278.01 669.088 1277.18 669.952C1276.38 670.816 1275.98 671.984 1275.98 673.456V686.272C1275.98 686.848 1275.83 687.28 1275.55 687.568C1275.26 687.856 1274.79 688 1274.15 688H1272.19C1271.55 688 1271.08 687.856 1270.79 687.568C1270.51 687.28 1270.36 686.848 1270.36 686.272V672.544C1270.36 671.2 1270.07 670.224 1269.5 669.616C1268.95 668.976 1268.07 668.656 1266.86 668.656C1265.48 668.656 1264.36 669.12 1263.5 670.048C1262.63 670.944 1262.2 672.128 1262.2 673.6V686.272C1262.2 686.848 1262.06 687.28 1261.77 687.568C1261.51 687.856 1261.05 688 1260.38 688H1258.27ZM1297.7 660.976C1296.93 660.976 1296.34 660.752 1295.92 660.304C1295.51 659.856 1295.3 659.312 1295.3 658.672V657.664C1295.3 657.024 1295.51 656.48 1295.92 656.032C1296.34 655.584 1296.93 655.36 1297.7 655.36H1299.76C1300.53 655.36 1301.12 655.584 1301.54 656.032C1301.99 656.48 1302.21 657.024 1302.21 657.664V658.672C1302.21 659.312 1301.99 659.856 1301.54 660.304C1301.12 660.752 1300.53 660.976 1299.76 660.976H1297.7ZM1297.51 688C1296.87 688 1296.4 687.856 1296.12 687.568C1295.83 687.28 1295.68 686.848 1295.68 686.272V666.736C1295.68 666.128 1295.83 665.68 1296.12 665.392C1296.4 665.104 1296.87 664.96 1297.51 664.96H1300C1300.64 664.96 1301.11 665.104 1301.4 665.392C1301.68 665.68 1301.83 666.128 1301.83 666.736V686.272C1301.83 686.848 1301.68 687.28 1301.4 687.568C1301.14 687.856 1300.68 688 1300 688H1297.51ZM1309.69 688C1309.05 688 1308.58 687.856 1308.3 687.568C1308.01 687.28 1307.86 686.848 1307.86 686.272V666.256C1307.86 665.776 1307.94 665.44 1308.1 665.248C1308.26 665.056 1308.6 664.96 1309.11 664.96H1311.85C1312.55 664.96 1312.92 665.28 1312.95 665.92L1313.05 667.84C1315.22 665.44 1318.34 664.24 1322.41 664.24C1325 664.24 1327.08 664.944 1328.65 666.352C1330.25 667.728 1331.05 669.808 1331.05 672.592V686.272C1331.05 686.848 1330.9 687.28 1330.62 687.568C1330.36 687.856 1329.91 688 1329.27 688H1326.73C1326.09 688 1325.62 687.856 1325.34 687.568C1325.05 687.28 1324.9 686.848 1324.9 686.272V672.976C1324.9 671.408 1324.54 670.304 1323.8 669.664C1323.1 668.992 1321.94 668.656 1320.34 668.656C1318.65 668.656 1317.16 669.12 1315.88 670.048C1314.63 670.944 1314.01 672.112 1314.01 673.552V686.272C1314.01 686.848 1313.86 687.28 1313.58 687.568C1313.32 687.856 1312.86 688 1312.18 688H1309.69ZM1345.07 688.72C1341.93 688.72 1339.43 687.776 1337.58 685.888C1335.72 683.968 1334.79 681.28 1334.79 677.824C1334.79 675.136 1335.39 672.768 1336.57 670.72C1337.75 668.64 1339.43 667.04 1341.61 665.92C1343.82 664.8 1346.38 664.24 1349.29 664.24C1353.35 664.24 1356.79 665.2 1359.61 667.12V686.704C1359.61 687.184 1359.5 687.52 1359.27 687.712C1359.08 687.904 1358.73 688 1358.22 688H1355.58C1355.23 688 1354.95 687.936 1354.76 687.808C1354.6 687.648 1354.49 687.408 1354.43 687.088L1354.04 685.216C1353.05 686.432 1351.82 687.328 1350.35 687.904C1348.91 688.448 1347.15 688.72 1345.07 688.72ZM1347.37 684.352C1349.07 684.352 1350.55 683.856 1351.83 682.864C1353.15 681.872 1353.8 680.56 1353.8 678.928V669.568C1353.13 669.216 1352.44 668.976 1351.74 668.848C1351.07 668.688 1350.23 668.608 1349.24 668.608C1346.71 668.608 1344.68 669.408 1343.15 671.008C1341.61 672.608 1340.84 674.816 1340.84 677.632C1340.84 679.936 1341.37 681.632 1342.43 682.72C1343.51 683.808 1345.16 684.352 1347.37 684.352ZM1374.67 688.72C1371.95 688.72 1369.91 687.968 1368.53 686.464C1367.15 684.96 1366.47 682.88 1366.47 680.224V669.472H1363.73C1363.09 669.472 1362.66 669.36 1362.43 669.136C1362.24 668.912 1362.15 668.496 1362.15 667.888V666.592C1362.15 665.984 1362.24 665.568 1362.43 665.344C1362.66 665.088 1363.09 664.96 1363.73 664.96H1366.47V662.32C1366.47 661.648 1366.58 661.024 1366.8 660.448C1367.06 659.84 1367.44 659.088 1367.95 658.192C1368.15 657.808 1368.32 657.568 1368.48 657.472C1368.67 657.344 1368.99 657.28 1369.44 657.28H1371.03C1371.6 657.28 1372 657.424 1372.23 657.712C1372.48 657.968 1372.61 658.368 1372.61 658.912V664.96H1378.27C1378.91 664.96 1379.33 665.088 1379.52 665.344C1379.75 665.568 1379.86 665.984 1379.86 666.592V667.888C1379.86 668.496 1379.75 668.912 1379.52 669.136C1379.33 669.36 1378.91 669.472 1378.27 669.472H1372.61V680.032C1372.61 681.504 1372.87 682.576 1373.38 683.248C1373.89 683.888 1374.77 684.208 1376.02 684.208C1376.75 684.208 1377.38 684.128 1377.89 683.968C1378.4 683.776 1378.96 683.472 1379.57 683.056C1379.73 682.928 1379.91 682.864 1380.1 682.864C1380.29 682.864 1380.48 683.008 1380.67 683.296L1382.07 685.6C1382.19 685.76 1382.26 685.936 1382.26 686.128C1382.26 686.352 1382.1 686.576 1381.78 686.8C1379.79 688.08 1377.43 688.72 1374.67 688.72ZM1398.44 688.72C1395.94 688.72 1393.68 688.304 1391.67 687.472C1389.65 686.608 1388.04 685.296 1386.82 683.536C1385.64 681.744 1385.04 679.52 1385.04 676.864C1385.04 672.736 1386.15 669.6 1388.36 667.456C1390.56 665.312 1393.7 664.24 1397.76 664.24C1401.8 664.24 1404.84 665.28 1406.88 667.36C1408.96 669.44 1410 672.448 1410 676.384C1410 677.504 1409.49 678.064 1408.47 678.064H1390.85C1390.85 680.176 1391.59 681.808 1393.06 682.96C1394.53 684.08 1396.58 684.64 1399.2 684.64C1401.73 684.64 1404 684.064 1406.02 682.912C1406.24 682.784 1406.42 682.72 1406.55 682.72C1406.77 682.72 1406.95 682.864 1407.08 683.152L1408.23 685.216C1408.32 685.408 1408.37 685.584 1408.37 685.744C1408.37 685.968 1408.23 686.176 1407.94 686.368C1406.63 687.168 1405.2 687.76 1403.67 688.144C1402.16 688.528 1400.42 688.72 1398.44 688.72ZM1404.44 674.512C1404.44 672.528 1403.88 670.976 1402.76 669.856C1401.67 668.736 1400.02 668.176 1397.81 668.176C1395.57 668.176 1393.84 668.752 1392.63 669.904C1391.44 671.056 1390.85 672.592 1390.85 674.512H1404.44ZM1415.75 688C1415.17 688 1414.69 687.792 1414.31 687.376C1413.92 686.96 1413.73 686.464 1413.73 685.888V685.024C1413.73 684.416 1413.92 683.904 1414.31 683.488C1414.69 683.072 1415.17 682.864 1415.75 682.864H1416.66C1417.24 682.864 1417.72 683.072 1418.1 683.488C1418.48 683.904 1418.68 684.416 1418.68 685.024V685.888C1418.68 686.464 1418.48 686.96 1418.1 687.376C1417.72 687.792 1417.24 688 1416.66 688H1415.75Z" fill="url(#paint13_linear_1_31)"/>
<defs>
<linearGradient id="paint0_linear_1_31" x1="2113.33" y1="30.4963" x2="156.5" y2="1044.5" gradientUnits="userSpaceOnUse">
<stop stop-color="white"/>
<stop offset="0.770416" stop-color="#F2F2F2"/>
</linearGradient>
<linearGradient id="paint1_linear_1_31" x1="707.888" y1="510.342" x2="1488.82" y2="513.535" gradientUnits="userSpaceOnUse">
<stop offset="0.25" stop-color="#F8BD20"/>
<stop offset="0.41" stop-color="#F9C628"/>
<stop offset="0.69" stop-color="#FBD131"/>
<stop offset="1" stop-color="#FCD535"/>
</linearGradient>
<linearGradient id="paint2_linear_1_31" x1="1396.68" y1="456.85" x2="1510.52" y2="456.85" gradientUnits="userSpaceOnUse">
<stop stop-color="#F8BD20"/>
<stop offset="0.63" stop-color="#FCD535"/>
</linearGradient>
<linearGradient id="paint3_linear_1_31" x1="1344.49" y1="512.119" x2="1487.47" y2="512.119" gradientUnits="userSpaceOnUse">
<stop stop-color="#F8BD20" stop-opacity="0.9"/>
<stop offset="0.15" stop-color="#F9C527" stop-opacity="0.8836"/>
<stop offset="0.37" stop-color="#FACE2F" stop-opacity="0.9409"/>
<stop offset="0.63" stop-color="#FBD333" stop-opacity="0.9801"/>
<stop offset="1" stop-color="#FCD535"/>
</linearGradient>
<linearGradient id="paint4_linear_1_31" x1="1349.99" y1="512.059" x2="1487.96" y2="512.059" gradientUnits="userSpaceOnUse">
<stop stop-color="#F8BD20"/>
<stop offset="0.63" stop-color="#FCD535"/>
</linearGradient>
<linearGradient id="paint5_linear_1_31" x1="863.698" y1="512.059" x2="914.198" y2="512.059" gradientUnits="userSpaceOnUse">
<stop offset="0.45" stop-color="#F8BD20"/>
<stop offset="0.54" stop-color="#F9C326"/>
<stop offset="0.78" stop-color="#FBD031"/>
<stop offset="1" stop-color="#FCD535"/>
</linearGradient>
<linearGradient id="paint6_linear_1_31" x1="687.198" y1="511.046" x2="1514.93" y2="514.431" gradientUnits="userSpaceOnUse">
<stop offset="0.23" stop-color="#F8BD20"/>
<stop offset="0.4" stop-color="#FACA2C"/>
<stop offset="0.6" stop-color="#FBD232"/>
<stop offset="1" stop-color="#FCD535"/>
</linearGradient>
<linearGradient id="paint7_linear_1_31" x1="721.428" y1="510.927" x2="1458.99" y2="513.949" gradientUnits="userSpaceOnUse">
<stop offset="0.23" stop-color="#F8BD20"/>
<stop offset="0.4" stop-color="#FACA2C"/>
<stop offset="0.6" stop-color="#FBD232"/>
<stop offset="1" stop-color="#FCD535"/>
</linearGradient>
<linearGradient id="paint8_linear_1_31" x1="689.938" y1="512.486" x2="1510.02" y2="515.84" gradientUnits="userSpaceOnUse">
<stop offset="0.23" stop-color="#F8BD20"/>
<stop offset="0.4" stop-color="#FACA2C"/>
<stop offset="0.6" stop-color="#FBD232"/>
<stop offset="1" stop-color="#FCD535"/>
</linearGradient>
<linearGradient id="paint9_linear_1_31" x1="701.998" y1="512.059" x2="756.118" y2="512.059" gradientUnits="userSpaceOnUse">
<stop stop-color="#F8BD20"/>
<stop offset="0.21" stop-color="#F9C628"/>
<stop offset="0.58" stop-color="#FBD131"/>
<stop offset="1" stop-color="#FCD535"/>
</linearGradient>
<linearGradient id="paint10_linear_1_31" x1="677.928" y1="484.261" x2="1539.97" y2="487.786" gradientUnits="userSpaceOnUse">
<stop stop-color="#F8BD20"/>
<stop offset="0.07" stop-color="#F9C628"/>
<stop offset="0.2" stop-color="#FBD131"/>
<stop offset="0.34" stop-color="#FCD535"/>
</linearGradient>
<linearGradient id="paint11_linear_1_31" x1="1187.03" y1="512.059" x2="1240.44" y2="512.059" gradientUnits="userSpaceOnUse">
<stop stop-color="#F8BD20"/>
<stop offset="0.21" stop-color="#F9C628"/>
<stop offset="0.58" stop-color="#FBD131"/>
<stop offset="1" stop-color="#FCD535"/>
</linearGradient>
<linearGradient id="paint12_linear_1_31" x1="1223.21" y1="512.059" x2="1344.79" y2="512.059" gradientUnits="userSpaceOnUse">
<stop stop-color="#F8BD20"/>
<stop offset="0.21" stop-color="#F9C628"/>
<stop offset="0.58" stop-color="#FBD131"/>
<stop offset="1" stop-color="#FCD535"/>
</linearGradient>
<linearGradient id="paint13_linear_1_31" x1="791" y1="670.5" x2="1421" y2="670.5" gradientUnits="userSpaceOnUse">
<stop stop-color="#FBD233"/>
<stop offset="0.505" stop-color="#F8C023"/>
<stop offset="1" stop-color="#F8C124"/>
</linearGradient>
</defs>
</svg>
